<svg width="204" height="48" viewBox="0 0 204 48" fill="none" xmlns="http://www.w3.org/2000/svg">
<path d="M5.75264 36.7143C7.82401 37.6054 10.4878 36.2039 11.6494 35.4738L25.089 12.4924C24.9959 12.4359 24.9346 12.4045 24.9303 12.4003C20.7347 10.0825 17.1992 11.4464 15.8683 12.1451C14.3598 12.9338 12.8766 14.2537 12.3392 14.7558C9.64784 19.4416 3.11633 30.8277 3.11633 30.8277C2.64027 32.5013 2.93438 35.4968 5.75264 36.7101" fill="#FFED00"/>
<path d="M50.4301 31.5745C50.0716 31.2699 49.6713 31.0171 49.241 30.8235C47.3098 29.9233 45.1053 29.7798 43.0713 30.4219C42.4048 30.6437 40.7439 31.5599 39.4152 32.3527L42.5508 37.9422C43.4211 39.4793 43.8766 41.212 43.8732 42.9736C43.8699 44.7351 43.4079 46.4662 42.5318 48H43.6659C50.8067 48 55.3197 40.1805 51.7525 33.8693C51.7525 33.8693 50.6755 31.9866 50.4301 31.5683" fill="#FFED00"/>
<path d="M49.2495 29.5998L38.2705 11.0657C38.3001 13.2308 37.8473 18.835 32.9027 23.274C32.5621 23.5794 32.2045 23.8764 31.8194 24.1672C31.5147 24.3764 12.9146 35.9675 12.9146 35.9675C12.7708 36.0742 10.0223 38.1138 7.22311 38.1138C6.56176 38.1203 5.90619 37.9914 5.29771 37.7352C4.55934 37.4249 3.89639 36.9626 3.35311 36.3789C2.80984 35.7953 2.39875 35.1037 2.14728 34.3505C2.0011 33.9187 1.9018 33.4727 1.85106 33.0201C1.85106 33.0201 0.862974 34.8505 0.736026 35.1852C-1.10261 39.5781 0.657751 44.3204 4.30329 46.5085C5.8859 47.5224 7.74911 48.0226 9.63302 47.9394C11.1981 47.8791 12.7241 47.4387 14.0762 46.657C14.9225 46.2387 38.8312 31.3863 38.8312 31.3863L38.8502 31.3758C40.2234 30.5558 41.9541 29.6061 42.7222 29.3551C44.8571 28.6583 47.1737 28.7392 49.2537 29.5831" fill="#FFED00"/>
<path d="M29.1916 15.1972C27.9348 13.0028 25.4677 11.4318 25.4677 11.4318C23.6812 10.3265 19.1552 8.72673 15.3436 11.1703C14.8433 11.4361 14.3606 11.733 13.8985 12.0594C14.1757 11.5761 17.8363 4.35949 17.8786 4.28836C18.7498 2.82404 20.4621 1.90492 21.8689 1.13831C23.2758 0.371693 24.86 -0.0202844 26.4663 0.000808446C28.0725 0.0219013 29.6456 0.455345 31.0314 1.25863C32.4172 2.06192 33.568 3.20747 34.3711 4.58298L36.9735 8.8839C37.0581 9.74575 37.1026 10.2708 37.1026 10.2708V10.3064C37.1132 10.3775 37.8643 16.5737 32.9831 21.6486C31.8533 19.7157 29.2085 15.2244 29.1916 15.1972Z" fill="#FFED00"/>
<path d="M73 29.1444C73 26.7362 74.366 25.149 77.043 25.149H79.6083C80.832 25.149 81.8095 25.2625 82.7304 25.7164V24.4121C82.7304 22.7128 81.5311 21.8625 79.44 21.8625C77.6289 21.8625 76.3179 22.5139 75.5928 23.8742L73.4513 22.5418C74.4547 20.2472 76.7676 19.1418 79.6404 19.1418C83.2933 19.1418 85.5511 20.8426 85.5511 24.4696V34.1892H82.7977V32.3469C81.9334 33.6497 80.3731 34.3586 78.5604 34.3586H78.4763C75.1309 34.3586 73.0122 32.064 73.0122 29.1444M79.0622 31.809H79.1463C81.4607 31.809 82.7426 30.6741 82.7426 29.0309C82.7426 28.0981 82.2409 27.6426 81.2129 27.6426H77.3107C76.3072 27.6426 75.833 28.1245 75.833 29.0604C75.833 30.7317 77.4223 31.809 79.0668 31.809" fill="#F2F2F2"/>
<path d="M88.25 26.7082C88.25 22.1749 90.6746 19.1418 94.7466 19.1418C96.8086 19.1418 98.3704 19.8787 99.3739 21.183V13.5H102.218V34.1891H99.4305V31.9209C98.5127 33.4522 97.032 34.3586 94.7466 34.3586C90.6746 34.3586 88.25 31.2991 88.25 26.7082ZM95.2208 31.4685C97.8121 31.4685 99.3739 29.6542 99.3739 26.6802C99.3739 23.7062 97.8121 21.9184 95.2208 21.9184C92.6295 21.9184 91.1488 23.7606 91.1488 26.6802C91.1488 29.5998 92.5714 31.4685 95.2208 31.4685Z" fill="#F2F2F2"/>
<path d="M104.277 19.397H107.372L111.666 31.3832L115.96 19.397H119.054L113.59 34.1878H109.741L104.277 19.397Z" fill="#F2F2F2"/>
<path d="M120.285 29.1441C120.285 26.736 121.651 25.1487 124.328 25.1487H126.893C128.117 25.1487 129.096 25.2622 130.016 25.7162V24.4118C130.016 22.7126 128.816 21.8622 126.725 21.8622C124.914 21.8622 123.603 22.5136 122.878 23.8739L120.736 22.5416C121.74 20.2469 124.054 19.1416 126.926 19.1416C130.578 19.1416 132.836 20.8424 132.836 24.4693V34.1889H130.083V32.3467C129.22 33.6495 127.658 34.3584 125.846 34.3584H125.761C122.416 34.3584 120.297 32.0637 120.297 29.1441M126.347 31.8088H126.431C128.746 31.8088 130.028 30.6739 130.028 29.0307C130.028 28.0979 129.526 27.6424 128.498 27.6424H124.594C123.591 27.6424 123.117 28.1243 123.117 29.0602C123.117 30.7314 124.706 31.8088 126.35 31.8088" fill="#F2F2F2"/>
<path d="M142.481 23.0239C141.422 23.0239 140.668 23.3924 140.668 24.0438C140.668 24.8942 141.952 25.1787 143.116 25.4041L144.985 25.7725C147.243 26.2265 149.528 27.0769 149.528 29.8255C149.528 32.9705 146.406 34.5003 142.614 34.5003C138.628 34.5003 134.812 32.7995 134.812 29.0311H139.614C139.614 30.4769 140.953 31.1003 142.542 31.1003C143.657 31.1003 144.745 30.8173 144.745 30.0804C144.745 29.429 143.827 29.1741 142.736 28.9751L140.838 28.6346C138.468 28.2102 135.876 27.3023 135.876 24.1262C135.876 20.6702 139.053 19.3379 142.316 19.3379C144.852 19.3379 147.195 20.1883 148.45 21.5144L145.939 24.5179C144.881 23.4701 143.682 23.0162 142.482 23.0162" fill="#F2F2F2"/>
<path d="M149.812 23.2785V19.5956H152.489V15.8271H157.51V19.4821C158.571 19.4088 159.625 19.2476 160.661 19.0002L161.692 22.5758C160.438 23.0002 159.268 23.1697 157.51 23.2272V28.2425C157.51 29.6588 158.292 30.1982 159.852 30.1982H160.745V34.1936H158.709C154.137 34.1936 152.493 32.2379 152.493 28.8379V23.2785H149.812Z" fill="#F2F2F2"/>
<path d="M177.331 26.9352C177.331 31.4686 174.153 34.5001 169.637 34.5001C165.121 34.5001 161.969 31.4686 161.969 26.9352C161.969 22.4019 165.12 19.3408 169.637 19.3408C174.154 19.3408 177.331 22.3724 177.331 26.9352ZM169.637 30.2C171.058 30.2 172.285 29.2081 172.285 26.9352C172.285 24.6624 171.061 23.6472 169.637 23.6472C168.213 23.6472 167.015 24.639 167.015 26.9352C167.015 29.2314 168.239 30.2 169.637 30.2Z" fill="#F2F2F2"/>
<path d="M184.133 19.596V22.1456C184.774 20.3888 186.029 19.397 188.036 19.397H189.123V24.2708H187.534C185.109 24.2708 184.3 25.7726 184.3 27.5573V34.1878H179.281V19.596H184.133Z" fill="#F2F2F2"/>
<path d="M193.974 27.2741C193.974 29.3434 195.23 30.4487 197.034 30.4487C198.288 30.4487 199.237 29.9388 199.572 29.0309H203.865C203.53 31.582 201.357 34.5001 196.867 34.5001C192.016 34.5001 189.395 31.0799 189.395 26.8217C189.395 22.1749 192.607 19.3408 196.89 19.3408C200.878 19.3408 204 21.6635 204 26.7083C204.004 27.1724 203.976 27.6363 203.916 28.0965H199.149C196.778 28.0965 194.744 27.6706 193.962 27.2741M199.177 25.4614C199.177 23.8462 198.034 22.9103 196.729 22.9103C195.838 22.9103 194.917 23.3362 194.435 24.5255C195.773 25.32 197.586 25.4583 199.177 25.4583" fill="#F2F2F2"/>
</svg>
