<?xml version="1.0" encoding="utf-8"?>
<!-- Generator: Adobe Illustrator 15.1.0, SVG Export Plug-In . SVG Version: 6.00 Build 0)  -->
<!DOCTYPE svg PUBLIC "-//W3C//DTD SVG 1.0//EN" "http://www.w3.org/TR/2001/REC-SVG-20010904/DTD/svg10.dtd">
<svg version="1.0" id="Ebene_1" xmlns="http://www.w3.org/2000/svg" xmlns:xlink="http://www.w3.org/1999/xlink" x="0px" y="0px"
	 width="191.333px" height="56px" viewBox="0 0 191.333 56" enable-background="new 0 0 191.333 56" xml:space="preserve">
<g>
	<path fill="#0053A1" d="M60.53,7.398l-9.181,24.979h7.295l1.424-4.388h8.54l1.53,4.388h7.153L68.11,7.398H60.53L60.53,7.398z
		 M63.128,18.366c0.427-1.415,0.818-2.83,1.21-4.281c0.391,1.415,0.783,2.831,1.21,4.246l1.281,4.316h-4.982L63.128,18.366
		L63.128,18.366z M79.177,7.398v24.979h15.017v-5.873H86.33V7.398H79.177L79.177,7.398z M97.005,7.398v24.979h7.899
		c3.844,0,5.516-0.212,7.367-0.92c4.661-1.733,6.19-6.297,6.583-7.748c0.178-0.672,0.498-2.123,0.498-3.963
		c0-2.547-0.605-5.165-1.957-7.324c-2.242-3.538-5.48-4.316-7.011-4.635c-1.494-0.283-2.883-0.389-5.942-0.389H97.005L97.005,7.398z
		 M104.194,13.236c1.886,0,3.914,0,5.587,1.132c2.206,1.557,2.206,4.706,2.206,5.272c0,3.114-1.281,4.847-2.278,5.696
		c-1.601,1.31-3.594,1.274-5.515,1.203V13.236L104.194,13.236z M121.488,7.398v24.979h15.053v-5.802h-8.292v-3.857h6.976v-5.873
		h-6.976v-3.609h7.972V7.398H121.488L121.488,7.398z M140.704,7.398v24.979h6.727v-8.562l6.014,8.562h8.433l-7.4-10.013
		c0.676-0.283,0.996-0.46,1.281-0.636c0.711-0.46,1.21-1.062,1.423-1.274c1.778-2.088,1.851-4.423,1.851-5.449
		c0-3.007-1.175-4.776-2.1-5.625c-0.605-0.567-1.317-0.92-1.566-1.062c-1.388-0.672-2.491-0.92-5.409-0.92H140.704L140.704,7.398z
		 M147.43,13.13h1.601c0.747,0,2.989-0.035,2.989,2.583c0,2.901-2.633,2.759-3.38,2.759h-1.21V13.13L147.43,13.13z M179.35,9.31
		c-0.642-0.389-1.246-0.779-1.922-1.132c-1.067-0.531-3.202-1.416-6.228-1.416c-5.053,0-7.26,2.442-8.185,4.458
		c-0.285,0.602-0.712,1.84-0.712,3.574c0,3.786,2.313,5.307,3.666,5.944c0.96,0.424,2.704,0.884,3.7,1.132
		c1.032,0.282,2.349,0.495,3.061,1.38c0.391,0.425,0.534,0.92,0.534,1.521c0,1.733-1.459,2.653-3.132,2.653
		c-1.175,0-2.848-0.565-5.018-2.052c-0.285-0.212-0.604-0.46-0.89-0.672l-2.455,5.201c1.53,1.096,4.305,3.112,9.074,3.112
		c2.847,0,5.302-0.708,7.259-2.901c1.531-1.662,2.136-3.573,2.136-5.803c0-3.113-1.246-4.741-2.313-5.59
		c-1.637-1.309-4.342-1.91-4.769-1.981c-1.423-0.389-2.455-0.672-3.024-1.026c-0.463-0.319-0.854-0.885-0.854-1.522
		c0-0.849,0.676-2.052,2.633-2.052c1.673,0,3.452,1.097,3.737,1.239c0.427,0.283,0.854,0.601,1.281,0.92L179.35,9.31L179.35,9.31z"
		/>
	<path fill="#0053A1" d="M60.53,7.398l-9.181,24.979h7.295l1.424-4.388h8.54l1.53,4.388h7.153L68.11,7.398H60.53L60.53,7.398z
		 M63.128,18.366c0.427-1.415,0.818-2.83,1.21-4.281c0.391,1.415,0.783,2.831,1.21,4.246l1.281,4.316h-4.982L63.128,18.366
		L63.128,18.366z M79.177,7.398v24.979h15.017v-5.873H86.33V7.398H79.177L79.177,7.398z M97.005,7.398v24.979h7.899
		c3.844,0,5.516-0.212,7.367-0.92c4.661-1.733,6.19-6.297,6.583-7.748c0.178-0.672,0.498-2.123,0.498-3.963
		c0-2.547-0.605-5.165-1.957-7.324c-2.242-3.538-5.48-4.316-7.011-4.635c-1.494-0.283-2.883-0.389-5.942-0.389H97.005L97.005,7.398z
		 M104.194,13.236c1.886,0,3.914,0,5.587,1.132c2.206,1.557,2.206,4.706,2.206,5.272c0,3.114-1.281,4.847-2.278,5.696
		c-1.601,1.31-3.594,1.274-5.515,1.203V13.236L104.194,13.236z M121.488,7.398v24.979h15.053v-5.802h-8.292v-3.857h6.976v-5.873
		h-6.976v-3.609h7.972V7.398H121.488L121.488,7.398z M140.704,7.398v24.979h6.727v-8.562l6.014,8.562h8.433l-7.4-10.013
		c0.676-0.283,0.996-0.46,1.281-0.636c0.711-0.46,1.21-1.062,1.423-1.274c1.778-2.088,1.851-4.423,1.851-5.449
		c0-3.007-1.175-4.776-2.1-5.625c-0.605-0.567-1.317-0.92-1.566-1.062c-1.388-0.672-2.491-0.92-5.409-0.92H140.704L140.704,7.398z
		 M147.43,13.13h1.601c0.747,0,2.989-0.035,2.989,2.583c0,2.901-2.633,2.759-3.38,2.759h-1.21V13.13L147.43,13.13z M179.35,9.31
		c-0.642-0.389-1.246-0.779-1.922-1.132c-1.067-0.531-3.202-1.416-6.228-1.416c-5.053,0-7.26,2.442-8.185,4.458
		c-0.285,0.602-0.712,1.84-0.712,3.574c0,3.786,2.313,5.307,3.666,5.944c0.96,0.424,2.704,0.884,3.7,1.132
		c1.032,0.282,2.349,0.495,3.061,1.38c0.391,0.425,0.534,0.92,0.534,1.521c0,1.733-1.459,2.653-3.132,2.653
		c-1.175,0-2.848-0.565-5.018-2.052c-0.285-0.212-0.604-0.46-0.89-0.672l-2.455,5.201c1.53,1.096,4.305,3.112,9.074,3.112
		c2.847,0,5.302-0.708,7.259-2.901c1.531-1.662,2.136-3.573,2.136-5.803c0-3.113-1.246-4.741-2.313-5.59
		c-1.637-1.309-4.342-1.91-4.769-1.981c-1.423-0.389-2.455-0.672-3.024-1.026c-0.463-0.319-0.854-0.885-0.854-1.522
		c0-0.849,0.676-2.052,2.633-2.052c1.673,0,3.452,1.097,3.737,1.239c0.427,0.283,0.854,0.601,1.281,0.92L179.35,9.31L179.35,9.31z"
		/>
</g>
<g>
	<path fill="#0053A1" d="M25.429,51.092L3.469,29.068L25.556,6.917l21.96,22.088L25.429,51.092z M4.294,29.068L25.43,50.265
		l21.261-21.261L25.555,7.745L4.294,29.068z M25.62,42.842c-7.594,0-13.772-6.178-13.772-13.772c0-7.596,6.178-13.775,13.772-13.775
		c7.594,0,13.772,6.179,13.772,13.775C39.392,36.664,33.213,42.842,25.62,42.842z M25.62,15.878
		c-7.272,0-13.188,5.917-13.188,13.191c0,7.272,5.917,13.188,13.188,13.188s13.188-5.917,13.188-13.188
		C38.808,21.796,32.892,15.878,25.62,15.878z"/>
</g>
<path fill="#0053A1" d="M34.123,33.803c-0.086,0-0.169,0.012-0.252,0.025L26.5,19.926c0.393-0.284,0.652-0.744,0.652-1.266
	c0-0.866-0.701-1.566-1.565-1.566c-0.865,0-1.566,0.701-1.566,1.566c0,0.538,0.272,1.011,0.686,1.293l-7.281,13.881
	c-0.1-0.02-0.203-0.031-0.308-0.031c-0.865,0-1.565,0.7-1.565,1.565c0,0.864,0.701,1.565,1.565,1.565
	c0.864,0,1.566-0.701,1.566-1.565c0-0.612-0.354-1.136-0.866-1.393c0.509-0.956,1.531-2.878,2.671-5.026h3.556
	c0.116,0.75,0.759,1.325,1.542,1.325c0.782,0,1.424-0.576,1.541-1.325h3.635c1.17,2.169,2.212,4.097,2.702,5.002
	c-0.535,0.249-0.908,0.787-0.908,1.417c0,0.864,0.701,1.565,1.565,1.565c0.864,0,1.566-0.701,1.566-1.565
	C35.688,34.503,34.988,33.803,34.123,33.803z M27.14,28.586c-0.063-0.807-0.731-1.444-1.553-1.444c-0.823,0-1.49,0.637-1.554,1.444
	h-3.352c0.958-1.807,1.983-3.742,2.849-5.385c0.026-0.05,0.051-0.097,0.077-0.146c0.069-0.131,0.138-0.262,0.205-0.389
	s0.131-0.25,0.195-0.372c0.019-0.036,0.039-0.073,0.057-0.108c0.076-0.144,0.149-0.284,0.221-0.42
	c0.012-0.022,0.023-0.044,0.035-0.067c0.319-0.609,0.597-1.14,0.809-1.551c0.146,0.046,0.298,0.077,0.458,0.077
	c0.161,0,0.315-0.031,0.462-0.078c0.496,0.946,1.333,2.514,2.274,4.269c0.068,0.127,0.138,0.257,0.207,0.386
	c0.166,0.308,0.333,0.619,0.502,0.934c0.014,0.025,0.027,0.051,0.041,0.077c0.119,0.222,0.238,0.442,0.358,0.665
	c0.008,0.015,0.017,0.03,0.025,0.046c0.373,0.692,0.746,1.386,1.111,2.063H27.14z"/>
<path fill="#0053A1" d="M51.462,49.98h1.48v-9.279h-1.48V49.98L51.462,49.98z M54.322,49.98h1.402v-4.692
	c0-0.937,0.547-1.365,1.119-1.365c0.729,0,0.976,0.325,0.976,1.261v4.797h1.402v-5.277c0-1.416-0.675-1.896-1.74-1.896
	c-0.781,0-1.445,0.377-1.796,0.999h-0.039v-0.817h-1.324V49.98L54.322,49.98z M64.15,46.562c0,1.509-0.221,2.484-1.184,2.484
	c-0.989,0-1.184-1.002-1.184-2.588c0-1.886,0.299-2.536,1.093-2.536C63.968,43.922,64.15,44.884,64.15,46.562L64.15,46.562z
	 M64.15,49.98h1.324v-9.279h-1.402v3.104h-0.026c-0.261-0.622-0.82-0.999-1.587-0.999c-1.067,0-2.157,0.48-2.157,3.587
	c0,2.393,0.662,3.77,2.287,3.77c0.988,0.002,1.366-0.583,1.535-1.038h0.026V49.98L64.15,49.98z M66.893,41.999h1.402v-1.402h-1.402
	V41.999L66.893,41.999z M66.893,49.98h1.402v-6.992h-1.402V49.98L66.893,49.98z M73.106,47.434c0,1.054-0.286,1.702-1.066,1.69
	c-1.002,0-1.197-1.092-1.197-2.64c0-1.549,0.195-2.641,1.197-2.641c0.832-0.038,1.001,0.819,1.001,1.469h1.403
	c0-0.857-0.325-2.546-2.404-2.507c-2.028,0-2.6,1.494-2.6,3.679s0.572,3.678,2.6,3.678c1.741,0,2.287-1.051,2.391-2.729H73.106
	L73.106,47.434z M78.748,47.459c0,1.04-0.416,1.665-1.262,1.665c-0.585,0-0.872-0.469-0.872-1.054c0-0.521,0.17-0.937,0.573-1.132
	c0.429-0.208,1.171-0.364,1.561-0.65V47.459L78.748,47.459z M80.072,44.52c0-1.233-0.986-1.714-2.222-1.714
	c-1.846,0-2.456,0.805-2.456,2.299h1.325c0-0.676,0.13-1.339,1.066-1.339c0.742,0,0.963,0.403,0.963,1.04
	c0,0.611-0.312,0.754-0.82,0.897l-1.092,0.3c-0.936,0.312-1.624,0.637-1.624,2.197c0,1.352,0.688,1.962,1.819,1.962
	c0.832,0,1.366-0.338,1.743-1.025H78.8c0.039,0.674,0.559,0.921,1.182,0.921c0.273,0,0.52-0.078,0.688-0.169V48.98
	c-0.052,0.027-0.13,0.04-0.234,0.04c-0.208,0-0.364-0.234-0.364-0.494V44.52L80.072,44.52z M80.88,44.027h0.962v4.343
	c0,1.416,0.481,1.688,1.415,1.688c0.456,0,0.833-0.039,1.131-0.116v-1.038c-0.129,0.025-0.298,0.039-0.506,0.039
	c-0.482,0-0.638-0.184-0.638-0.742v-4.174h1.144v-1.039h-1.144V41h-1.402v1.988H80.88V44.027L80.88,44.027z M86.326,45.706v-0.145
	c0-0.909,0.286-1.795,1.17-1.795c0.794,0,1.08,0.677,1.08,1.562v0.378H86.326L86.326,45.706z M89.978,46.666v-0.74
	c0-1.938-0.52-3.119-2.469-3.119c-2.183,0-2.586,1.949-2.586,3.781c0,3.237,1.416,3.575,2.56,3.575c1.522,0,2.456-0.948,2.456-2.521
	h-1.324c0,0.429-0.117,1.561-1.119,1.561c-1.053,0-1.17-1.197-1.17-2.134v-0.403H89.978L89.978,46.666z M90.798,49.98h1.481v-1.714
	h-1.481V49.98L90.798,49.98z M101.212,46.655v0.155c0,0.871-0.131,2.236-1.379,2.236c-1.105,0-1.588-0.754-1.588-3.745
	s0.482-3.667,1.588-3.667c1.066-0.039,1.326,0.936,1.326,1.807v0.158h1.48v-0.171c0-0.975-0.155-2.909-2.795-2.909
	c-2.353,0-3.079,1.506-3.079,4.821c0,3.316,0.727,4.822,3.067,4.822c2.17,0,2.858-1.636,2.858-3.313v-0.194H101.212L101.212,46.655z
	 M104.773,46.485c0-1.549,0.195-2.641,1.196-2.641c1.027,0,1.21,1.092,1.21,2.641c0,1.78-0.183,2.64-1.21,2.64
	C104.968,49.125,104.773,48.265,104.773,46.485L104.773,46.485z M105.969,50.163c1.937,0,2.611-1.494,2.611-3.678
	c0-2.186-0.584-3.679-2.611-3.679s-2.599,1.493-2.599,3.679C103.371,48.668,104.046,50.163,105.969,50.163L105.969,50.163z
	 M109.662,49.98h1.402v-4.692c0-0.937,0.547-1.365,1.119-1.365c0.729,0,0.976,0.325,0.976,1.261v4.797h1.402v-5.277
	c0-1.416-0.675-1.896-1.74-1.896c-0.781,0-1.445,0.377-1.796,0.999h-0.039v-0.817h-1.324V49.98L109.662,49.98z M115.291,44.027
	h0.962v4.343c0,1.416,0.48,1.688,1.415,1.688c0.456,0,0.832-0.039,1.132-0.116v-1.038c-0.131,0.025-0.3,0.039-0.508,0.039
	c-0.48,0-0.637-0.184-0.637-0.742v-4.174h1.145v-1.039h-1.145V41h-1.402v1.988h-0.962V44.027L115.291,44.027z M119.529,49.98h1.402
	v-4.186c0-1.3,0.767-1.586,1.403-1.586c0.247,0,0.481,0.039,0.585,0.078v-1.43c-0.077-0.037-0.194-0.051-0.338-0.051
	c-0.793,0-1.313,0.493-1.625,1.272h-0.025v-1.091h-1.402V49.98L119.529,49.98z M124.752,46.485c0-1.549,0.195-2.641,1.197-2.641
	c1.027,0,1.21,1.092,1.21,2.641c0,1.78-0.183,2.64-1.21,2.64C124.948,49.125,124.752,48.265,124.752,46.485L124.752,46.485z
	 M125.95,50.163c1.938,0,2.612-1.494,2.612-3.678c0-2.186-0.584-3.679-2.612-3.679c-2.027,0-2.599,1.493-2.599,3.679
	C123.351,48.668,124.026,50.163,125.95,50.163L125.95,50.163z M129.708,49.98h1.402v-9.279h-1.402V49.98L129.708,49.98z
	 M132.67,49.98h1.481v-1.714h-1.481V49.98L132.67,49.98z M143.083,46.655v0.155c0,0.871-0.13,2.236-1.379,2.236
	c-1.104,0-1.587-0.754-1.587-3.745s0.482-3.667,1.587-3.667c1.067-0.039,1.327,0.936,1.327,1.807v0.158h1.48v-0.171
	c0-0.975-0.155-2.909-2.794-2.909c-2.354,0-3.08,1.506-3.08,4.821c0,3.316,0.727,4.822,3.066,4.822c2.171,0,2.859-1.636,2.859-3.313
	v-0.194H143.083L143.083,46.655z M146.645,46.485c0-1.549,0.195-2.641,1.196-2.641c1.027,0,1.21,1.092,1.21,2.641
	c0,1.78-0.183,2.64-1.21,2.64C146.84,49.125,146.645,48.265,146.645,46.485L146.645,46.485z M147.841,50.163
	c1.937,0,2.611-1.494,2.611-3.678c0-2.186-0.584-3.679-2.611-3.679s-2.6,1.493-2.6,3.679
	C145.242,48.668,145.917,50.163,147.841,50.163L147.841,50.163z M151.534,49.98h1.402v-4.692c0-0.937,0.547-1.365,1.119-1.365
	c0.729,0,0.976,0.325,0.976,1.261v4.797h1.402v-5.277c0-1.416-0.675-1.896-1.74-1.896c-0.781,0-1.444,0.377-1.796,0.999h-0.039
	v-0.817h-1.324V49.98L151.534,49.98z M157.787,49.98h1.402v-4.692c0-0.937,0.547-1.365,1.119-1.365c0.729,0,0.976,0.325,0.976,1.261
	v4.797h1.402v-5.277c0-1.416-0.675-1.896-1.74-1.896c-0.781,0-1.445,0.377-1.796,0.999h-0.039v-0.817h-1.324V49.98L157.787,49.98z
	 M165.248,45.706v-0.145c0-0.909,0.285-1.795,1.17-1.795c0.793,0,1.08,0.677,1.08,1.562v0.378H165.248L165.248,45.706z
	 M168.9,46.666v-0.74c0-1.938-0.52-3.119-2.469-3.119c-2.184,0-2.586,1.949-2.586,3.781c0,3.237,1.415,3.575,2.56,3.575
	c1.521,0,2.456-0.948,2.456-2.521h-1.324c0,0.429-0.117,1.561-1.119,1.561c-1.054,0-1.17-1.197-1.17-2.134v-0.403H168.9
	L168.9,46.666z M173.452,47.434c0,1.054-0.287,1.702-1.066,1.69c-1.002,0-1.197-1.092-1.197-2.64c0-1.549,0.195-2.641,1.197-2.641
	c0.832-0.038,1.002,0.819,1.002,1.469h1.401c0-0.857-0.324-2.546-2.403-2.507c-2.028,0-2.6,1.494-2.6,3.679s0.571,3.678,2.6,3.678
	c1.741,0,2.287-1.051,2.391-2.729H173.452L173.452,47.434z M175.206,44.027h0.962v4.343c0,1.416,0.481,1.688,1.416,1.688
	c0.455,0,0.832-0.039,1.132-0.116v-1.038c-0.131,0.025-0.3,0.039-0.508,0.039c-0.48,0-0.637-0.184-0.637-0.742v-4.174h1.145v-1.039
	h-1.145V41h-1.403v1.988h-0.962V44.027L175.206,44.027z M179.586,49.98h1.481v-1.714h-1.481V49.98L179.586,49.98z"/>
<g>
	<path fill="#0053A1" d="M186.222,10.213c0,0.437-0.076,0.834-0.23,1.193c-0.152,0.358-0.361,0.665-0.623,0.92
		c-0.264,0.255-0.567,0.452-0.913,0.593s-0.708,0.211-1.088,0.211c-0.421,0-0.808-0.074-1.158-0.223s-0.653-0.353-0.905-0.612
		s-0.449-0.568-0.593-0.924c-0.144-0.356-0.214-0.742-0.214-1.158c0-0.438,0.076-0.835,0.229-1.193
		c0.153-0.359,0.361-0.666,0.624-0.921s0.568-0.452,0.916-0.593c0.35-0.141,0.715-0.211,1.101-0.211c0.38,0,0.742,0.07,1.088,0.211
		s0.649,0.338,0.913,0.593c0.262,0.255,0.471,0.562,0.623,0.921C186.146,9.378,186.222,9.775,186.222,10.213z M185.598,10.213
		c0-0.354-0.058-0.679-0.171-0.976c-0.115-0.296-0.273-0.551-0.477-0.765c-0.203-0.213-0.439-0.378-0.709-0.495
		c-0.271-0.117-0.563-0.175-0.874-0.175c-0.317,0-0.612,0.058-0.886,0.175c-0.272,0.117-0.511,0.282-0.713,0.495
		c-0.203,0.214-0.361,0.469-0.477,0.765c-0.114,0.297-0.172,0.622-0.172,0.976c0,0.332,0.053,0.645,0.156,0.936
		c0.104,0.291,0.254,0.546,0.449,0.765c0.194,0.218,0.43,0.392,0.705,0.519s0.588,0.191,0.937,0.191
		c0.312,0,0.603-0.059,0.874-0.176c0.27-0.117,0.506-0.282,0.709-0.495c0.203-0.214,0.361-0.467,0.477-0.761
		C185.541,10.897,185.598,10.571,185.598,10.213z M182.791,11.882h-0.531V8.652h1.225c0.391,0,0.685,0.073,0.882,0.219
		c0.198,0.146,0.296,0.382,0.296,0.71c0,0.291-0.08,0.504-0.241,0.64c-0.161,0.135-0.361,0.216-0.601,0.241l0.904,1.42h-0.6
		l-0.835-1.381h-0.499V11.882z M183.383,10.049c0.099,0,0.193-0.004,0.284-0.012c0.092-0.008,0.17-0.03,0.238-0.066
		c0.067-0.036,0.122-0.087,0.164-0.152c0.041-0.064,0.063-0.157,0.063-0.276c0-0.099-0.022-0.177-0.066-0.234
		c-0.045-0.057-0.101-0.102-0.168-0.133c-0.068-0.031-0.143-0.051-0.227-0.059c-0.083-0.008-0.164-0.012-0.241-0.012h-0.64v0.944
		H183.383z"/>
</g>
</svg>
