<?xml version="1.0" encoding="utf-8"?>
<!DOCTYPE svg PUBLIC "-//W3C//DTD SVG 1.1//EN" "http://www.w3.org/Graphics/SVG/1.1/DTD/svg11.dtd">
<svg version="1.1" id="Ebene_1" xmlns="http://www.w3.org/2000/svg" xmlns:xlink="http://www.w3.org/1999/xlink" x="0px" y="0px"
	 width="185px" height="90px" viewBox="213.5 351 185 90" enable-background="new 213.5 351 185 90" xml:space="preserve">
<g>
	<path fill="#1A171B" d="M270.703,411.387l-3.216-6.578h-2.319v6.578h-3.225v-16.502h6.467c3.362,0,5.354,2.293,5.354,5.052
		c0,2.328-1.414,3.759-3.008,4.337l3.69,7.113H270.703z M268.202,397.765h-3.035v4.354h3.035c1.414,0,2.336-0.905,2.336-2.182
		C270.539,398.67,269.616,397.765,268.202,397.765z"/>
	<path fill="#1A171B" d="M285.911,411.387v-6.905h-5.578v6.905h-3.225v-16.502h3.225v6.742h5.578v-6.742h3.225v16.502H285.911z"/>
	<path fill="#1A171B" d="M292.989,411.387v-16.502h10.873v2.871h-7.648v3.871h6.51v2.871h-6.51v4.01h7.648v2.87h-10.873V411.387z"/>
	<path fill="#1A171B" d="M307.018,411.387v-16.502h3.226v16.502H307.018z"/>
	<path fill="#1A171B" d="M323.847,411.387l-6.535-10.122v10.13h-3.225v-16.51h2.872l6.535,10.104v-10.104h3.216v16.502H323.847z"/>
	<path fill="#1A171B" d="M330.021,406.17v-2.801h5.568l0.639,2.801H330.021z"/>
	<path fill="#1A171B" d="M352.852,411.387h-2.682l-3.036-10.01l-3.034,10.01h-2.689l-4.397-16.502h3.354l2.544,10.406l3.008-10.406
		h2.414l3.009,10.406l2.569-10.406h3.362L352.852,411.387z"/>
	<path fill="#1A171B" d="M367.448,411.387l-0.983-2.923h-5.863l-0.991,2.923h-3.362l6-16.502h2.527l6.026,16.502H367.448z
		 M363.603,399.756l-2.086,6.002h4.104L363.603,399.756z"/>
	<path fill="#1A171B" d="M382.234,411.387l-0.975-2.923h-5.863l-1,2.923h-3.354l6.001-16.502h2.518l6.026,16.502H382.234z
		 M378.389,399.756l-2.086,6.002h4.104L378.389,399.756z"/>
	<path fill="#1A171B" d="M387.183,411.387v-16.502h3.225v13.632h7.476v2.87H387.183z"/>
</g>
<g>
	<path fill="#1A171B" d="M266.616,425.975l-1.638-3.267h-1.475v3.267h-1.172v-7.76h3c1.475,0,2.415,0.949,2.415,2.269
		c0,1.11-0.681,1.819-1.543,2.061l1.784,3.431H266.616z M265.253,419.275h-1.75v2.432h1.75c0.784,0,1.319-0.447,1.319-1.216
		C266.573,419.725,266.038,419.275,265.253,419.275z"/>
	<path fill="#1A171B" d="M272.763,425.975v-3.388c0-0.845-0.492-1.216-1.112-1.216s-1.121,0.379-1.121,1.216v3.388h-1.112v-7.76
		h1.112v2.786c0.379-0.415,0.888-0.622,1.432-0.622c1.232,0,1.914,0.829,1.914,2.026v3.561h-1.112V425.975z"/>
	<path fill="#1A171B" d="M275.625,419.361v-1.172h1.182v1.172H275.625z M275.66,425.975v-5.526h1.112v5.526H275.66z"/>
	<path fill="#1A171B" d="M281.979,425.975v-3.362c0-0.862-0.482-1.231-1.104-1.231c-0.621,0-1.147,0.378-1.147,1.231v3.362h-1.112
		v-5.526h1.095v0.553c0.379-0.415,0.914-0.622,1.474-0.622c0.569,0,1.035,0.19,1.363,0.501c0.431,0.413,0.56,0.931,0.56,1.561v3.525
		h-1.13V425.975z"/>
	<path fill="#1A171B" d="M285.696,423.535c0,0.948,0.5,1.552,1.397,1.552c0.621,0,0.948-0.182,1.344-0.569l0.708,0.664
		c-0.569,0.569-1.104,0.854-2.069,0.854c-1.389,0-2.483-0.725-2.483-2.837c0-1.793,0.922-2.82,2.336-2.82
		c1.482,0,2.345,1.088,2.345,2.664v0.483h-3.578V423.535z M288.024,422.009c-0.164-0.415-0.561-0.698-1.086-0.698
		c-0.526,0-0.923,0.283-1.095,0.698c-0.112,0.251-0.138,0.414-0.147,0.751h2.483C288.17,422.423,288.136,422.26,288.024,422.009z"/>
	<path fill="#1A171B" d="M290.792,423.466v-1.034h2.818l0.242,1.034H290.792z"/>
	<g>
		<path fill="#1A171B" d="M301.594,425.975h-1.025l-1.587-5.44l-1.569,5.44h-1.026l-2.035-7.76h1.25l1.345,5.553l1.561-5.553h0.948
			l1.561,5.553l1.354-5.553h1.242L301.594,425.975z"/>
		<path fill="#1A171B" d="M307.233,425.975v-0.492c-0.405,0.397-0.785,0.561-1.474,0.561c-0.69,0-1.147-0.163-1.484-0.5
			c-0.284-0.301-0.439-0.723-0.439-1.188c0-0.923,0.646-1.595,1.905-1.595h1.465v-0.397c0-0.698-0.363-1.034-1.216-1.034
			c-0.611,0-0.905,0.139-1.207,0.534l-0.724-0.689c0.526-0.604,1.069-0.794,1.983-0.794c1.518,0,2.275,0.638,2.275,1.896v3.69
			h-1.085V425.975z M307.216,423.535h-1.302c-0.655,0-1,0.293-1,0.802c0,0.5,0.319,0.776,1.018,0.776
			c0.423,0,0.742-0.026,1.034-0.311c0.165-0.164,0.242-0.423,0.242-0.819v-0.448H307.216z"/>
		<path fill="#1A171B" d="M313.087,425.975v-0.492c-0.396,0.397-0.784,0.561-1.465,0.561c-0.682,0-1.147-0.163-1.483-0.5
			c-0.275-0.301-0.432-0.723-0.432-1.188c0-0.923,0.639-1.595,1.905-1.595h1.458v-0.397c0-0.698-0.345-1.034-1.207-1.034
			c-0.612,0-0.897,0.139-1.207,0.534l-0.732-0.689c0.525-0.604,1.068-0.794,1.975-0.794c1.517,0,2.284,0.638,2.284,1.896v3.69
			h-1.096V425.975z M313.062,423.535h-1.293c-0.656,0-0.993,0.293-0.993,0.802c0,0.5,0.319,0.776,1.019,0.776
			c0.423,0,0.742-0.026,1.034-0.311c0.164-0.164,0.242-0.423,0.242-0.819v-0.448H313.062z"/>
		<path fill="#1A171B" d="M317.449,425.975c-1.06,0-1.517-0.707-1.517-1.526v-6.233h1.111v6.173c0,0.423,0.155,0.639,0.604,0.639
			h0.491v0.948H317.449z"/>
		<path fill="#1A171B" d="M324.916,426.036c-1.586,0-2.784-1.078-2.784-2.682v-5.147h1.173v5.095c0,1.026,0.637,1.674,1.611,1.674
			c0.966,0,1.613-0.639,1.613-1.674v-5.095h1.181v5.147C327.7,424.966,326.494,426.036,324.916,426.036z"/>
		<path fill="#1A171B" d="M332.917,425.975v-3.362c0-0.862-0.49-1.231-1.112-1.231c-0.611,0-1.138,0.378-1.138,1.231v3.362h-1.112
			v-5.526h1.087v0.553c0.388-0.415,0.914-0.622,1.475-0.622c0.567,0,1.033,0.19,1.362,0.501c0.431,0.413,0.56,0.931,0.56,1.561
			v3.525h-1.121V425.975z"/>
		<path fill="#1A171B" d="M335.789,419.361v-1.172h1.171v1.172H335.789z M335.814,425.975v-5.526h1.112v5.526H335.814z"/>
		<path fill="#1A171B" d="M341.013,425.975h-0.896l-2.026-5.526h1.173l1.311,3.889l1.293-3.889h1.181L341.013,425.975z"/>
		<path fill="#1A171B" d="M344.79,423.535c0,0.948,0.508,1.552,1.405,1.552c0.63,0,0.948-0.182,1.344-0.569l0.716,0.664
			c-0.568,0.569-1.104,0.854-2.068,0.854c-1.389,0-2.483-0.725-2.483-2.837c0-1.793,0.922-2.82,2.336-2.82
			c1.492,0,2.346,1.088,2.346,2.664v0.483h-3.595V423.535z M347.126,422.009c-0.173-0.415-0.569-0.698-1.087-0.698
			c-0.524,0-0.93,0.283-1.103,0.698c-0.104,0.251-0.131,0.414-0.146,0.751h2.482C347.265,422.423,347.237,422.26,347.126,422.009z"
			/>
		<path fill="#1A171B" d="M352.973,421.75c-0.259-0.249-0.449-0.369-0.829-0.369c-0.603,0-1.112,0.473-1.112,1.241v3.353h-1.104
			v-5.526h1.095v0.604c0.276-0.396,0.846-0.664,1.476-0.664c0.534,0,0.938,0.139,1.311,0.526L352.973,421.75z"/>
		<path fill="#1A171B" d="M356.464,426.036c-0.914,0-1.683-0.148-2.328-0.794l0.732-0.725c0.44,0.458,1.044,0.578,1.596,0.578
			c0.673,0,1.207-0.25,1.207-0.768c0-0.379-0.207-0.611-0.741-0.655l-0.88-0.077c-1.035-0.087-1.638-0.553-1.638-1.526
			c0-1.077,0.922-1.69,2.086-1.69c0.827,0,1.535,0.173,2.052,0.622l-0.698,0.706c-0.354-0.293-0.845-0.404-1.362-0.404
			c-0.663,0-1,0.291-1,0.715c0,0.328,0.172,0.579,0.767,0.63l0.872,0.078c1.034,0.086,1.638,0.576,1.638,1.551
			C358.756,425.441,357.783,426.036,356.464,426.036z"/>
		<path fill="#1A171B" d="M360.154,419.361v-1.172h1.172v1.172H360.154z M360.188,425.975v-5.526h1.111v5.526H360.188z"/>
		<path fill="#1A171B" d="M364.854,425.975c-1.036,0-1.518-0.732-1.518-1.534v-3.044h-0.631v-0.854h0.631v-1.681h1.112v1.681h1.068
			v0.854h-1.068v2.983c0,0.396,0.198,0.639,0.61,0.639h0.458v0.947h-0.663V425.975z"/>
		<path fill="#1A171B" d="M368.818,427.078c-0.111,0.303-0.24,0.527-0.405,0.691c-0.302,0.301-0.715,0.403-1.138,0.403h-0.448
			v-1.009h0.284c0.465,0,0.63-0.137,0.793-0.585l0.302-0.862l-1.932-5.269h1.182l1.32,3.889l1.284-3.889h1.19L368.818,427.078z"/>
	</g>
	<path fill="#1A171B" d="M265.892,437.52c-0.354,0.371-0.905,0.655-1.655,0.655s-1.285-0.276-1.646-0.655
		c-0.526-0.543-0.656-1.241-0.656-2.181c0-0.923,0.13-1.621,0.656-2.164c0.361-0.371,0.896-0.655,1.646-0.655
		s1.302,0.284,1.655,0.655c0.526,0.543,0.655,1.25,0.655,2.164C266.546,436.278,266.417,436.977,265.892,437.52z M265.055,433.82
		c-0.207-0.206-0.491-0.311-0.819-0.311c-0.336,0-0.604,0.104-0.811,0.311c-0.336,0.346-0.38,0.923-0.38,1.519
		c0,0.603,0.044,1.173,0.38,1.517c0.207,0.207,0.474,0.327,0.811,0.327c0.328,0,0.612-0.12,0.819-0.327
		c0.336-0.336,0.388-0.914,0.388-1.517C265.443,434.743,265.4,434.166,265.055,433.82z"/>
	<path fill="#1A171B" d="M269.418,433.527v4.579h-1.121v-4.579h-0.629v-0.845h0.629v-0.853c0-0.795,0.482-1.543,1.517-1.543h0.698
		v0.946h-0.491c-0.414,0-0.612,0.242-0.612,0.648v0.792h1.095v0.845h-1.086V433.527z"/>
	<path fill="#1A171B" d="M279.057,438.106l-0.534-1.552h-3.061l-0.535,1.552h-1.259l2.837-7.76h0.957l2.854,7.76H279.057z
		 M277.022,432.104l-1.207,3.44h2.388L277.022,432.104z"/>
	<path fill="#1A171B" d="M285.256,437.684c-0.302,0.302-0.776,0.491-1.336,0.491c-0.586,0-1.043-0.146-1.448-0.629v2.802h-1.112
		v-7.768h1.095v0.586c0.414-0.509,0.862-0.655,1.466-0.655c0.552,0,1.043,0.181,1.345,0.492c0.561,0.551,0.621,1.491,0.621,2.327
		C285.876,436.183,285.816,437.131,285.256,437.684z M283.626,433.51c-1.008,0-1.155,0.847-1.155,1.829
		c0,0.981,0.147,1.844,1.155,1.844c1,0,1.147-0.853,1.147-1.844C284.773,434.356,284.626,433.51,283.626,433.51z"/>
	<path fill="#1A171B" d="M291.36,437.684c-0.302,0.302-0.785,0.491-1.336,0.491c-0.595,0-1.051-0.146-1.458-0.629v2.802h-1.112
		v-7.768h1.086v0.586c0.415-0.509,0.863-0.655,1.466-0.655c0.552,0,1.052,0.181,1.354,0.492c0.561,0.551,0.621,1.491,0.621,2.327
		C291.981,436.183,291.921,437.131,291.36,437.684z M289.731,433.51c-1.009,0-1.165,0.847-1.165,1.829
		c0,0.981,0.156,1.844,1.165,1.844c1,0,1.147-0.853,1.147-1.844C290.878,434.356,290.731,433.51,289.731,433.51z"/>
	<path fill="#1A171B" d="M295.042,438.106c-1.061,0-1.517-0.708-1.517-1.518v-6.242h1.112v6.165c0,0.422,0.146,0.646,0.595,0.646
		h0.491v0.949H295.042z"/>
	<path fill="#1A171B" d="M296.99,431.493v-1.182h1.182v1.182H296.99z M297.025,438.106v-5.526h1.112v5.526H297.025L297.025,438.106z
		"/>
	<path fill="#1A171B" d="M300.792,435.666c0,0.948,0.501,1.543,1.406,1.543c0.621,0,0.948-0.172,1.345-0.56l0.707,0.663
		c-0.569,0.569-1.104,0.862-2.07,0.862c-1.388,0-2.491-0.724-2.491-2.836c0-1.785,0.931-2.819,2.345-2.819
		c1.474,0,2.346,1.095,2.346,2.663v0.492h-3.587V435.666z M303.129,434.14c-0.182-0.414-0.569-0.698-1.096-0.698
		c-0.525,0-0.922,0.284-1.104,0.698c-0.112,0.25-0.129,0.414-0.138,0.751h2.492C303.267,434.554,303.233,434.39,303.129,434.14z"/>
	<path fill="#1A171B" d="M309.096,438.106v-0.587c-0.415,0.509-0.854,0.655-1.458,0.655c-0.561,0-1.042-0.181-1.353-0.491
		c-0.561-0.553-0.621-1.509-0.621-2.345c0-0.837,0.069-1.776,0.621-2.328c0.301-0.302,0.785-0.491,1.345-0.491
		c0.585,0,1.043,0.146,1.44,0.621v-2.794h1.12v7.76H309.096L309.096,438.106z M307.932,433.51c-1,0-1.155,0.847-1.155,1.829
		c0,0.981,0.146,1.844,1.155,1.844c1,0,1.146-0.853,1.146-1.844C309.07,434.356,308.932,433.51,307.932,433.51z"/>
	<path fill="#1A171B" d="M316.916,438.175c-1.173,0-2.01-0.276-2.751-1.026l0.784-0.768c0.569,0.562,1.19,0.741,1.992,0.741
		c1.009,0,1.595-0.438,1.595-1.188c0-0.336-0.095-0.621-0.302-0.802c-0.189-0.181-0.396-0.259-0.854-0.328l-0.912-0.129
		c-0.622-0.088-1.13-0.311-1.467-0.62c-0.38-0.362-0.56-0.854-0.56-1.484c0-1.353,0.982-2.275,2.596-2.275
		c1.024,0,1.74,0.259,2.405,0.879l-0.76,0.74c-0.474-0.455-1.034-0.603-1.689-0.603c-0.906,0-1.414,0.527-1.414,1.208
		c0,0.284,0.086,0.535,0.294,0.715c0.197,0.182,0.507,0.311,0.87,0.362l0.879,0.129c0.725,0.113,1.13,0.284,1.449,0.578
		c0.422,0.371,0.629,0.923,0.629,1.595C319.7,437.32,318.536,438.175,316.916,438.175z"/>
	<path fill="#1A171B" d="M323.407,438.175c-1.241,0-2.465-0.759-2.465-2.836c0-2.07,1.224-2.819,2.465-2.819
		c0.759,0,1.294,0.216,1.811,0.775l-0.759,0.742c-0.344-0.38-0.621-0.527-1.052-0.527s-0.784,0.173-1.026,0.492
		c-0.24,0.302-0.327,0.698-0.327,1.337c0,0.646,0.087,1.052,0.327,1.354c0.242,0.319,0.596,0.49,1.026,0.49s0.708-0.146,1.052-0.516
		l0.759,0.724C324.701,437.943,324.175,438.175,323.407,438.175z"/>
	<path fill="#1A171B" d="M326.554,431.493v-1.182h1.182v1.182H326.554z M326.589,438.106v-5.526h1.111v5.526H326.589
		L326.589,438.106z"/>
	<path fill="#1A171B" d="M330.355,435.666c0,0.948,0.51,1.543,1.415,1.543c0.621,0,0.948-0.172,1.346-0.56l0.707,0.663
		c-0.569,0.569-1.104,0.862-2.07,0.862c-1.388,0-2.49-0.724-2.49-2.836c0-1.785,0.93-2.819,2.344-2.819
		c1.482,0,2.347,1.095,2.347,2.663v0.492h-3.598V435.666z M332.693,434.14c-0.172-0.414-0.569-0.698-1.087-0.698
		c-0.525,0-0.922,0.284-1.104,0.698c-0.112,0.25-0.13,0.414-0.147,0.751h2.492C332.83,434.554,332.797,434.39,332.693,434.14z"/>
	<path fill="#1A171B" d="M338.857,438.106v-3.363c0-0.861-0.5-1.233-1.111-1.233c-0.621,0-1.147,0.38-1.147,1.233v3.363h-1.104
		v-5.526h1.086v0.561c0.379-0.414,0.915-0.621,1.475-0.621c0.561,0,1.034,0.181,1.361,0.508c0.432,0.414,0.563,0.932,0.563,1.552
		v3.527H338.857L338.857,438.106z"/>
	<path fill="#1A171B" d="M343.927,438.175c-1.241,0-2.456-0.759-2.456-2.836c0-2.07,1.215-2.819,2.456-2.819
		c0.768,0,1.303,0.216,1.828,0.775l-0.767,0.742c-0.354-0.38-0.622-0.527-1.062-0.527c-0.422,0-0.784,0.173-1.024,0.492
		c-0.242,0.302-0.328,0.698-0.328,1.337c0,0.646,0.086,1.052,0.328,1.354c0.24,0.319,0.603,0.49,1.024,0.49
		c0.439,0,0.716-0.146,1.062-0.516l0.767,0.724C345.229,437.943,344.694,438.175,343.927,438.175z"/>
	<path fill="#1A171B" d="M347.747,435.666c0,0.948,0.5,1.543,1.396,1.543c0.621,0,0.948-0.172,1.345-0.56l0.698,0.663
		c-0.56,0.569-1.104,0.862-2.068,0.862c-1.38,0-2.483-0.724-2.483-2.836c0-1.785,0.922-2.819,2.336-2.819
		c1.492,0,2.346,1.095,2.346,2.663v0.492h-3.569V435.666z M350.075,434.14c-0.173-0.414-0.569-0.698-1.095-0.698
		c-0.519,0-0.923,0.284-1.096,0.698c-0.111,0.25-0.129,0.414-0.138,0.751h2.482C350.222,434.554,350.187,434.39,350.075,434.14z"/>
	<path fill="#1A171B" d="M354.661,438.175c-0.905,0-1.663-0.146-2.319-0.794l0.725-0.724c0.448,0.458,1.052,0.569,1.595,0.569
		c0.673,0,1.216-0.232,1.216-0.758c0-0.372-0.206-0.613-0.741-0.656l-0.879-0.077c-1.043-0.086-1.639-0.561-1.639-1.526
		c0-1.078,0.922-1.689,2.086-1.689c0.82,0,1.535,0.172,2.044,0.621l-0.698,0.706c-0.345-0.293-0.836-0.405-1.362-0.405
		c-0.655,0-0.991,0.302-0.991,0.707c0,0.337,0.163,0.587,0.759,0.629l0.871,0.078c1.043,0.096,1.646,0.578,1.646,1.561
		C356.964,437.571,355.979,438.175,354.661,438.175z"/>
</g>
<g>
	<path fill="#87888A" d="M268.556,391.1v-5.225h-4.225v5.225h-2.44v-12.484h2.44v5.095h4.225v-5.095h2.432V391.1H268.556z"/>
	<path fill="#87888A" d="M281.462,389.833c-0.879,0.879-1.939,1.362-3.363,1.362c-1.414,0-2.509-0.491-3.379-1.362
		c-1.259-1.259-1.224-2.819-1.224-4.984c0-2.155-0.035-3.715,1.224-4.983c0.871-0.879,1.966-1.371,3.379-1.371
		c1.423,0,2.492,0.492,3.363,1.371c1.267,1.259,1.25,2.819,1.25,4.983C282.712,387.013,282.729,388.573,281.462,389.833z
		 M279.66,381.348c-0.353-0.396-0.896-0.672-1.561-0.672c-0.672,0-1.225,0.268-1.577,0.672c-0.475,0.527-0.595,1.104-0.595,3.509
		c0,2.406,0.121,2.983,0.595,3.509c0.345,0.405,0.905,0.672,1.577,0.672c0.673,0,1.208-0.267,1.561-0.672
		c0.474-0.526,0.612-1.104,0.612-3.509C280.272,382.452,280.126,381.875,279.66,381.348z"/>
	<path fill="#87888A" d="M289.377,391.203c-1.362,0-2.491-0.491-3.362-1.362c-1.259-1.259-1.224-2.819-1.224-4.984
		c0-2.155-0.035-3.715,1.224-4.983c0.879-0.879,2-1.371,3.362-1.371c2.336,0,4.165,1.336,4.596,3.949h-2.475
		c-0.25-1-0.88-1.776-2.113-1.776c-0.664,0-1.207,0.25-1.561,0.647c-0.474,0.526-0.621,1.129-0.621,3.526
		c0,2.406,0.138,3,0.621,3.527c0.354,0.396,0.888,0.646,1.561,0.646c1.225,0,1.862-0.767,2.113-1.767h2.475
		C293.542,389.867,291.705,391.203,289.377,391.203z"/>
	<path fill="#87888A" d="M302.75,391.1v-5.225h-4.225v5.225h-2.44v-12.484h2.44v5.095h4.225v-5.095h2.44V391.1H302.75z"/>
	<path fill="#87888A" d="M311.553,391.203c-1.888,0-3.338-0.405-4.562-1.646l1.578-1.578c0.793,0.785,1.862,1.051,3.019,1.051
		c1.439,0,2.207-0.543,2.207-1.542c0-0.44-0.113-0.811-0.38-1.053c-0.25-0.232-0.526-0.353-1.104-0.439l-1.508-0.208
		c-1.069-0.154-1.863-0.491-2.414-1.034c-0.595-0.595-0.896-1.406-0.896-2.458c0-2.224,1.646-3.785,4.354-3.785
		c1.716,0,2.957,0.414,4.034,1.457l-1.542,1.526c-0.786-0.759-1.733-0.862-2.562-0.862c-1.292,0-1.931,0.715-1.931,1.578
		c0,0.311,0.111,0.646,0.38,0.888c0.241,0.224,0.637,0.422,1.146,0.491l1.475,0.207c1.139,0.155,1.862,0.466,2.389,0.957
		c0.663,0.629,0.965,1.543,0.965,2.655C316.182,389.833,314.165,391.203,311.553,391.203z"/>
	<path fill="#87888A" d="M322.658,391.203c-1.372,0-2.492-0.491-3.372-1.362c-1.258-1.259-1.225-2.819-1.225-4.984
		c0-2.155-0.033-3.715,1.225-4.983c0.88-0.879,2-1.371,3.372-1.371c2.335,0,4.155,1.336,4.595,3.949h-2.474
		c-0.242-1-0.872-1.776-2.104-1.776c-0.673,0-1.216,0.25-1.562,0.647c-0.473,0.526-0.62,1.129-0.62,3.526
		c0,2.406,0.147,3,0.62,3.527c0.346,0.396,0.889,0.646,1.562,0.646c1.232,0,1.862-0.767,2.104-1.767h2.474
		C326.813,389.867,324.967,391.203,322.658,391.203z"/>
	<path fill="#87888A" d="M336.03,391.1v-5.225h-4.226v5.225h-2.439v-12.484h2.439v5.095h4.226v-5.095h2.439V391.1H336.03z"/>
	<path fill="#87888A" d="M345.79,391.203c-2.553,0-4.587-1.733-4.587-4.38v-8.207h2.432v8.121c0,1.432,0.844,2.293,2.155,2.293
		c1.318,0,2.173-0.861,2.173-2.293v-8.121h2.414v8.207C350.377,389.47,348.351,391.203,345.79,391.203z"/>
	<path fill="#87888A" d="M353.11,391.1v-12.484h2.439v10.302h5.664v2.182H353.11z"/>
	<path fill="#87888A" d="M363.197,391.1v-12.484h8.225v2.171h-5.785v2.923h4.924v2.173h-4.924v3.035h5.785v2.182H363.197z"/>
</g>
<path fill="#28255A" d="M226.869,408.111v-32.539l-11.226-13.976c-1.664-2.078-1.337-5.113,0.741-6.777
	c2.079-1.664,5.113-1.336,6.777,0.741l13.347,16.623v35.928c0,2.663-2.164,4.818-4.82,4.818
	C229.033,412.93,226.869,410.767,226.869,408.111"/>
<path fill="#3374B5" d="M259.779,352.526l-20.917,27.702l-0.078,42.833c-0.009,2.664,2.147,4.829,4.811,4.837h0.009
	c2.656,0,4.819-2.155,4.828-4.812l0.069-39.607l11.278-14.942V352.526L259.779,352.526z"/>
</svg>
